<svg xmlns="http://www.w3.org/2000/svg" viewBox="0 0 300 300">
	<path fill="#77CBB9" d="M36.6 67.31c-.46 0-.88-.17-1.19-.49-.55-.55-.59-1.43-.09-2.03 9.22-10.97 18.69-23.05 23.46-30.19-7.38 7.31-20.82 20.92-30.56 30.83-.56.58-1.48.6-2.08.06a1.5 1.5 0 01-.14-2.08c8.24-9.77 16.83-20.28 23.28-28.53-16.6 17.87-20.89 21.42-22.75 21.47h-.04c-.49 0-.94-.18-1.27-.51-1.43-1.43-1.1-2.26 12.22-18.93 2.29-2.87 4.92-6.16 7.29-9.21-7.05 7.06-16.49 16.72-21.69 22.04q-6.66 6.81-7.32 6.81v-1.5l-.99-1.13c.28-.26 3.01-3.05 6.17-6.28 30.64-31.35 31.06-31.35 32.05-31.35.39 0 .8.16 1.09.45 1.59 1.59.68 3.36-14.24 22.04-2.48 3.11-5.25 6.58-7.52 9.52 6.79-6.65 17.22-18.02 22.05-23.28q5.96-6.5 6.72-6.52c.4.01.81.15 1.1.44 1.18 1.18 2.05 2.05-13.21 21.26C62.32 26.75 62.71 26.75 63.3 26.75c.4 0 .79.16 1.07.44 1.14 1.14 2.43 2.43-10.63 19.49.38-.41.75-.81 1.11-1.19 12.76-13.77 13.44-14.25 14.59-14.27.4 0 .86.17 1.14.46.59.59.59 1.54 0 2.12-.21.21-.45.34-.72.4-1.47 1.09-7.48 7.58-12.81 13.33-15.22 16.42-18.65 19.75-20.4 19.79h-.03zM68.45 33.8zm0 0zm0 0zM254.72 286.44c-.4 0-.78-.16-1.06-.44-1.31-1.31-1.47-1.47 16.02-24.79l-18.73 18.73c-.59.59-1.54.59-2.12 0-1.8-1.8-.15-4.38 12.58-19.76 3.89-4.7 9.23-11.15 11.92-15.09-3.54 3.41-9.3 10.07-13.83 15.31-11.49 13.29-15.15 17.17-17.31 17.24-.54.02-1.04-.17-1.41-.54-1.69-1.69-.56-3.74 16.17-23.48 2.24-2.64 4.75-5.6 7.12-8.46-7.88 7.9-18.35 18.47-26.43 26.67a1.5 1.5 0 01-2.14-2.1s9.38-9.52 18.83-19.03c19.33-19.47 19.4-19.47 20.29-19.47.37 0 .79.16 1.07.44 1.72 1.72.58 3.81-16.45 23.9-3.27 3.86-7.14 8.43-10.26 12.29 2.68-2.97 5.68-6.44 8.25-9.41 11.33-13.11 16.2-18.46 18.72-18.55.57-.03 1.1.18 1.48.56 2.07 2.07-.94 6.21-13.71 21.64-1.24 1.5-2.59 3.13-3.93 4.76l21.29-21.29a1.49 1.49 0 012.12 0q1.12 1.12-10.27 16.31c-1.5 2-3.18 4.25-4.89 6.53.58-.62 1.17-1.23 1.76-1.85 16.96-17.81 18.44-17.84 19.43-17.86.5 0 .93.16 1.25.49.59.59.59 1.54 0 2.12-.31.31-.73.46-1.12.44-3.06 1.67-19.37 18.66-33.52 34.21-.28.3-.67.48-1.08.49h-.03zM27.26 136.77c-.57 0-1.1-.21-1.48-.59-1.75-1.75-1.47-4.64 18.15-25.94 4.82-5.24 10.26-10.98 16.04-16.99-6.31 6.32-12.21 12.22-17.25 17.25-4.85 4.85-8.9 8.89-11.75 11.72-4.87 4.84-4.91 4.88-5.55 4.88h-.02c-.4 0-.78-.16-1.06-.44-1.24-1.24-.96-3.18 3.76-9.44-3.92 3.33-6.69 5.12-8.22 5.15-.85.02-1.39-.34-1.69-.64a1.49 1.49 0 010-2.12 1.49 1.49 0 011.78-.25c5.71-1.01 41.05-39.5 64.51-65.06 29.83-32.5 37.67-40.69 40.12-40.74.48 0 .92.17 1.25.49 1.09 1.09.19 2.08-1.3 3.72-.89.98-2.22 2.4-4.08 4.36-3.51 3.69-8.57 8.93-14.43 15-19.23 19.91-59.48 61.58-73.97 79.76 18.76-18.7 67.47-67.49 95.67-95.75a1.499 1.499 0 012.12 0c1.08 1.08 1.24 2.15-5.94 10.16 4.97-4.4 8.59-6.8 10.72-6.86 1.06-.03 1.73.41 2.11.78 1.45 1.45.93 4.29-12.37 19.52 7.83-7.61 9.69-8.95 10.45-8.96.37-.02.83.17 1.11.45.59.59.59 1.54 0 2.12-.2.2-.45.33-.7.4-4.22 2.83-45.79 45.27-70.74 70.75q-26.56 27.12-27.44 27.13c-.42-.02-.79-.16-1.07-.44-1.09-1.09-.22-2.05 1.36-3.78.93-1.02 2.32-2.49 4.25-4.52 3.65-3.82 8.88-9.23 14.95-15.49 24.1-24.89 73.27-75.67 77.51-84.84-1.8.63-6.97 3.96-21.5 19.08-11.55 12.02-25.55 27.79-39.1 43.04-29.63 33.37-42.1 46.98-46.12 47.1h-.07zm62.27-69.61c-.27.27-.54.55-.81.83-22.13 22.62-54.68 55.9-59.85 64.87 6.37-4.66 25.37-26.07 42.34-45.18 6.53-7.36 12.65-14.22 18.32-20.52zm44.3-28.8zm0 0zm0 0zm0 0zM180.03 285.88c-.4 0-.78-.16-1.06-.44-.39-.39-.86-1.1-.85-2.24.01-1.68 1.26-4.21 3.57-7.51-3.37 2.89-3.97 2.9-4.44 2.9-.41.03-.87-.16-1.18-.47-1.85-1.85.23-6.24 23.91-31.86-28.89 29.72-32.71 33.15-34.12 33.16-.38-.02-.84-.17-1.12-.46a1.97 1.97 0 01-.56-1.41c.02-3.55 12.46-16.06 42.99-45.93 15.62-15.27 31.77-31.06 44.23-44.25 10.66-11.28 15.63-17.58 17.91-21.08-8.38 8.45-28.62 28.83-48.71 49-15.34 15.4-27.6 27.68-36.44 36.48q-17.08 17.01-17.99 17.02c-.4 0-.78-.16-1.07-.44-.58-.59-.58-1.54 0-2.12.09-.09.19-.17.3-.23 3.59-2.99 70.61-70.39 105.79-105.86.28-.28.63-.43 1.07-.44.4 0 .78.16 1.06.44.37.37.82 1.05.81 2.13 0 1.81-1.57 4.74-4.46 8.66 3.97-3.71 5.7-4.94 6.44-4.95h.01c.4 0 .85.18 1.14.46q1.55 1.55-30.4 34.77c-21.54 22.4-55.45 57.64-65.49 70.83 15.1-13.64 62.54-62.42 94.96-96.31.28-.29.66-.46 1.07-.46.43 0 .79.15 1.08.44.38.38.58.9.58 1.48 0 .97-.81 2.48-2.51 4.7 2-1.24 3.62-1.93 4.78-1.97 1.17-.04 1.92.43 2.33.84.59.59.59 1.54 0 2.12-.57.57-1.49.59-2.08.04-1.12-.29-8.59 1.12-53.48 49.73-23.87 25.84-46.71 52.46-46.93 52.72-.27.32-.66.51-1.08.52h-.06zm22.3-29.3c-1.28 1.33-2.52 2.63-3.72 3.91-7.59 8.07-11.94 13.33-14.4 16.75 4.34-5.01 10.7-12.29 18.12-20.66zm-35.11 9.65zm0 0zm-.53-.34zm-.52-.09c-.21 0-.41.04-.59.12.22-.09.45-.13.69-.12h-.1zM32.48 215.07c-.95 0-1.56-.4-1.9-.75a1.499 1.499 0 010-2.12c5.01-5 10.2-10.2 15.51-15.53-9.77 9.48-16.43 14.6-19.79 14.7-1.17.03-1.89-.44-2.3-.85-1.26-1.26-.72-2.72 5.13-9.38 3.56-4.05 8.89-9.75 16.29-17.41 13.82-14.3 32.86-33.37 53.01-53.55 15.81-15.83 33.71-33.77 50.19-50.55 17.49-19.35 31.41-34.17 41.5-43.57 4.36-4.86 7.78-8.89 9.99-11.84-24.4 22.6-134.58 134.57-179.12 180.05-.28.29-.66.45-1.06.45-.38 0-.79-.16-1.07-.44-.38-.38-.83-1.08-.82-2.21 0-.57.02-1.37.69-2.95-3.48 2.94-5.96 4.48-7.42 4.52-.89.02-1.46-.35-1.78-.67a1.49 1.49 0 010-2.12c.5-.5 1.26-.57 1.84-.22 1.13-.19 4.44-2.28 14.08-11.91 8.02-10.53 24.74-29.66 59.65-65.31 56.71-63.78 97.74-108.92 109.38-109.26 1.44-.04 2.34.54 2.84 1.04.29.29.44.67.44 1.08 0 .4-.17.79-.47 1.07-.45.43-45.77 43.55-89.95 87.85-7.3 7.31-13.98 14.08-20.11 20.34-.09.1-.18.2-.27.31-26.62 29.94-46.37 52.03-59.23 64.87-2.82 3.7-4.5 6.25-5.48 8.01 11.35-11.58 49.39-50.35 87.34-88.71 91.64-92.62 93.36-92.63 94.62-92.63.4 0 .82.17 1.11.45 1.18 1.18.99 3-3.04 8.36 1.93-1.18 3.49-1.8 4.66-1.83 1.2-.03 1.94.45 2.36.87 1.02 1.02 2 2-7.06 12.92.79-.33 1.47-.51 2.05-.52 1.07-.04 1.79.42 2.17.81.59.59.59 1.54 0 2.12-.56.56-1.46.58-2.05.07-.79-.12-3.21.72-10.52 7.19-2.81 3.16-6.08 6.78-9.9 10.95-14.19 15.46-34.24 36.54-59.63 62.66-2.65 2.95-5.29 5.9-7.92 8.83-47.21 52.64-76.41 84.61-83.87 84.82h-.09zm77.87-92.57c-3.26 3.27-6.53 6.54-9.78 9.8-33.51 33.56-68.09 68.19-73.41 75.95 2.39-.87 9.42-5.54 29.52-26.59 15.28-16 34.62-37.7 53.68-59.16zm-37.54 51.47c-14.43 14.59-26.4 26.62-33.41 33.65 4.22-3.55 10.87-9.84 21.39-20.84 3.76-3.93 7.79-8.24 12.02-12.81zm77.49-91.74c-10.79 11.94-22.23 24.83-33.46 37.48-25.52 28.75-46.13 51.79-61.41 67.58 21.67-21.81 44.89-45.39 66.47-67.61 32.4-36.07 56.13-61.98 70.09-74.19 8.13-9.14 13.36-15.55 14.6-18.15-1.36.25-5.04 2.17-14.76 11.28-4.8 5.37-10.88 11.91-18.39 19.76-7.04 7.37-14.85 15.41-23.13 23.84zm42.36-64.63c-10.16 3.94-38.09 33.12-67.98 66.08 31.21-30.87 59.52-58 67.98-66.08zM109.76 285.18c-1.22 0-1.98-.5-2.41-.94a1.5 1.5 0 01-.03-2.09l.63-.67c-3.34 2.03-5.95 3.08-7.8 3.15-1.37.05-2.46-.33-3.28-1.15-.51-.51-1.11-1.43-1.08-2.92.04-1.85 1.19-4.41 3.3-7.59-3.7 3.8-4.59 4.34-5.25 4.36-.4.01-.85-.16-1.14-.45-.49-.49-1.07-1.38-1.04-2.82.01-.67.17-1.43.47-2.29-.78.31-1.46.48-2.05.5-1.23.04-1.97-.46-2.4-.88a1.49 1.49 0 010-2.12 1.49 1.49 0 012.12 0c.38.16 1.51.1 4.8-2.28 7.22-11.29 27.34-31.34 56.26-58.46 7.17-8.13 14.64-16.67 22.27-25.4 51.08-58.42 85.36-96.74 96.03-97.09 1.45-.06 2.34.54 2.84 1.04.46.46.99 1.28.97 2.6v.15c2.03-1.11 3.68-1.7 4.93-1.73 1.37-.03 2.19.51 2.65.96.56.56 1.22 1.57 1.18 3.21-.04 1.82-1 4.2-2.79 7.14l1.1-1.18c.56-.6 1.49-.63 2.1-.09.61.54.67 1.47.14 2.09-.11.13-3.13 3.65-8.33 9.64 6.68-6.08 11.4-9.33 14.07-9.42 1.19-.04 1.91.44 2.32.85.59.59.59 1.54 0 2.12-.58.58-1.5.59-2.09.03-.95-.27-5.79.88-29.23 25.53-15.71 16.53-36.03 39.56-55.68 61.84-50.11 56.81-83.68 94.07-93.39 94.37h-.14zm123.55-137.22c-13.18 12.42-28.67 26.59-45.97 42.33-41.4 37.66-88.32 80.35-88.56 90.35-.01.52.14.67.2.73.07.07.3.3 1.04.27 2.41-.09 7.73-2.58 19.42-12.41L233.3 147.96zM121.69 271.23l-9.65 10.28c7.9-3.8 26.7-23.2 48.49-47.18-15.89 16.2-28.85 28.51-38.84 36.9zm-24.97-2.18c-.98 1.58-1.62 2.92-1.91 4 2.2-2.15 6.3-6.53 11.61-12.31-3.79 3.58-7.02 6.37-9.7 8.3zm26.79-30.13c-6 5.98-11.35 11.51-15.77 16.38 2.99-2.94 6.46-6.49 10.51-10.76 1.71-1.8 3.46-3.68 5.26-5.61zm49.95-47.35c-15.12 16.44-29.69 32.52-41.97 46.08l-1.44 1.59c15.41-14.89 34.75-32.48 55.28-51.16 43.65-39.71 93.12-84.72 93.38-95.89.01-.62-.17-.88-.3-1.02-.06-.06-.21-.09-.45-.09-1.19.03-3.21.84-6.51 3.06-7.04 13.01-38.25 42.33-85.89 86.27-4 3.69-8.04 7.42-12.09 11.16zm40.13-18.21l-56.83 60.53c11.52-11.7 25.29-26.17 41.77-44.05 5.08-5.52 10.12-11.03 15.06-16.48zm55.73-84.33h-.07c-10.15.34-54.54 51.09-93.74 95.92 40.62-44.03 76.23-80.86 93.67-92.79.5-1.02.76-1.88.78-2.55 0-.12 0-.34-.09-.42-.04-.04-.16-.16-.55-.16zm-5.6 11c-9.13 7.57-23.38 20.95-45.45 43.81-5.85 6.05-11.88 12.4-18 18.89 26.32-24.38 51.98-48.66 63.45-62.7zM43.24 275.79c-.51 0-.99-.19-1.33-.53-.3-.3-.65-.83-.65-1.69 0-.73.01-1.9 2.8-6-2.68 1.98-4.1 2.5-5.08 2.53-.87.02-1.43-.35-1.75-.66-.33-.33-.51-.78-.5-1.26.03-1.41 2.89-4.88 11.33-13.17-13.06 11.6-15.09 11.63-16.23 11.65-.75.02-1.28-.32-1.56-.6-.58-.58-.59-1.51-.02-2.1L255.88 27.7c-7.83 2.49-34.32 22.33-121.79 115.64-53.7 57.29-105.01 115.23-105.52 115.81a1.503 1.503 0 01-2.25-1.99c.51-.58 51.84-58.55 105.58-115.87C204.3 64.06 246.48 24.73 257.28 24.4c1.5-.05 2.39.53 2.89 1.03.58.58.59 1.51.02 2.1L40.2 257.89c12.82-10.68 43.16-39.46 113.25-111.81 5.31-5.48 10.62-10.97 15.86-16.42 30.25-33.09 55.33-59.79 73.28-76.72 13.75-14.52 22.35-23.65 22.56-23.88.28-.3.66-.47 1.07-.47.4 0 .8.15 1.08.44.96.96 1.43 2.27 1.4 3.88v.08c.56-.16 1.07-.24 1.53-.25 1.35-.03 2.24.52 2.71.99.28.28.44.67.44 1.07s-.17.78-.45 1.06c-.14.13-3.49 3.41-9.29 9.09-3.39 5.34-8.39 11.82-14.76 19.27 14.87-14.68 16.06-14.7 17.06-14.71.42-.02.9.17 1.22.49.59.59.59 1.54 0 2.12-.31.31-.72.45-1.11.44-5.56 2.87-51.72 51.03-96.38 97.62C84.81 238.71 48.49 275.73 43.26 275.79h-.02zm14.29-20.38c-8.04 9.36-11.39 14.06-12.62 16.4 12.41-8.74 73.18-72.14 122.6-123.7 4.58-4.77 9.11-9.5 13.56-14.15-24.2 23.34-51.66 49.02-80.11 75.44-10.35 11.33-19.95 21.71-28.37 30.57-6.07 6.39-11.02 11.45-15.07 15.45zm4.38-9.55c-9.06 8.59-16.13 15.48-19.69 19.39 2.48-1.86 6.57-5.44 13.31-12.1 1.87-2.18 3.99-4.6 6.38-7.29zm40-42.9c-8.63 8.67-16.18 16.17-22.77 22.63 3.27-3.05 6.77-6.3 10.52-9.79 3.78-3.99 7.85-8.26 12.25-12.84zm147.4-143.94c-22.06 21.7-56.67 55.91-90.99 90.53a5932.717 5932.717 0 00-27.83 28.25c43.44-40.64 93.54-88.59 118.82-118.77zm-78.36 73.26c-1.13 1.24-2.26 2.48-3.4 3.72 39.22-39.4 76.96-76.5 93.92-93.13a50.99 50.99 0 002.36-4.13c-4.67 3.16-11.1 8.69-18.78 15.95-18.11 19.12-45.3 47.7-74.1 77.58zm97.08-95.94c-.02.06-.04.11-.06.17.09-.09.17-.17.26-.25-.07.03-.13.06-.2.08zm-2.33-3.5c-.76.81-1.78 1.89-3.04 3.23 1.02-.67 1.97-1.25 2.85-1.72.12-.54.18-1.04.19-1.5z">
	</path>
</svg>
